P2
# MeVisLab
45 37
1951
35 36 34 38 39 32 33 36 36 32 35 35 41 35 41 40 33 37 37 40 43 50 40 
35 28 23 16 13 17 19 23 36 33 29 25 23 27 22 21 20 17 19 19 18 21 
34 34 38 41 40 40 41 35 37 40 30 32 44 44 46 41 50 36 28 15 4 0 0 8 
11 14 40 48 48 31 25 0 0 20 33 25 26 24 21 24 22 23 23 22 22 
35 30 40 36 33 38 41 41 44 44 45 46 42 15 2 1 1 0 29 50 135 242 351 
471 544 647 708 747 672 575 494 344 163 20 0 22 29 22 24 22 19 22 23 
19 19 
45 43 38 39 39 46 51 50 59 61 26 2 14 91 202 302 391 516 638 892 1104 
1208 1303 1306 1326 1137 1135 1270 1269 1272 1319 1109 852 505 223 6 
7 33 23 24 27 28 28 27 26 
34 39 38 44 43 44 46 51 29 0 65 286 592 922 1121 1180 1246 1263 1256 
1215 894 607 390 305 282 186 107 131 189 300 489 799 1330 1330 795 
429 67 0 45 41 35 30 35 31 26 
41 37 49 55 50 42 52 6 34 298 844 1222 1214 1044 794 576 456 184 109 
56 43 154 271 324 317 364 361 346 285 201 42 57 167 805 1444 1120 579 
119 0 32 23 25 25 22 25 
45 46 47 39 48 40 1 114 603 1315 1350 707 395 367 506 511 225 176 310 
409 483 475 441 432 439 405 444 424 453 482 420 413 347 144 266 1208 
1375 652 129 0 27 26 27 25 29 
34 39 38 37 42 4 234 875 1517 975 339 426 572 553 419 341 367 352 381 
336 341 376 332 246 214 243 367 352 340 330 418 435 429 485 386 54 
808 1377 716 185 1 32 24 23 25 
35 33 32 39 1 287 1100 1310 568 365 444 425 333 203 267 430 494 484 
399 212 400 439 399 284 210 228 241 324 386 251 193 321 456 450 472 
491 70 740 1307 684 70 11 31 19 22 
33 33 40 0 184 1100 1040 360 405 329 272 395 535 489 354 396 433 513 
298 301 409 373 393 412 404 327 208 207 355 248 98 247 370 402 446 
485 546 0 831 1246 331 0 32 25 23 
40 36 23 6 853 911 309 437 243 305 412 585 450 432 448 362 274 324 
223 328 268 275 291 354 446 297 246 323 373 210 236 361 330 239 238 
355 408 277 78 1089 791 133 4 33 26 
33 43 0 384 900 420 507 266 386 576 384 369 452 220 386 510 276 257 
282 340 396 381 384 372 270 213 244 233 320 259 374 296 304 396 314 
402 453 380 41 381 1146 515 4 20 28 
39 20 54 718 499 593 260 421 512 568 537 319 307 332 404 325 270 418 
414 316 395 303 328 373 250 294 308 223 276 289 293 337 398 455 531 
462 342 436 283 9 803 1003 167 0 33 
41 0 313 561 640 495 261 530 382 387 472 378 327 474 466 368 385 386 
334 299 329 380 333 311 361 367 354 275 175 225 280 426 342 449 387 
211 237 387 415 132 290 1167 471 0 24 
38 6 483 536 674 239 298 439 435 419 415 319 455 400 265 369 374 337 
368 382 394 369 396 385 363 387 353 394 304 331 312 364 400 422 329 
269 371 343 412 274 118 976 873 81 2 
14 54 567 237 70 231 395 365 413 390 369 427 436 276 298 390 402 446 
484 459 454 449 394 347 350 365 356 383 324 328 366 355 427 381 458 
423 405 244 316 350 68 530 1139 258 1 
2 121 547 0 42 411 467 406 418 351 477 453 315 378 439 482 578 601 
590 556 537 537 554 496 367 338 368 330 370 372 297 356 363 322 359 
475 488 200 268 372 310 101 965 591 1 
0 203 512 0 251 456 406 406 405 381 447 310 418 560 591 619 451 264 
244 212 202 288 376 485 598 585 560 425 281 270 384 347 335 353 396 
458 395 386 436 380 355 30 430 895 166 
2 305 470 0 210 414 386 358 393 416 444 322 400 629 676 368 96 145 
153 233 400 466 444 365 389 595 627 550 224 235 378 332 348 402 461 
360 293 410 444 387 336 258 127 793 534 
0 541 355 0 83 384 532 505 374 352 491 429 290 459 638 498 234 162 
166 375 426 395 387 324 181 305 631 581 313 275 269 334 382 422 403 
430 406 308 456 362 321 437 187 597 776 
96 704 146 0 43 337 518 454 413 401 432 481 434 323 343 464 437 294 
355 399 386 455 465 399 173 230 648 612 273 225 283 360 364 366 458 
500 444 375 494 377 291 431 264 502 978 
328 483 0 21 2 207 534 552 451 429 403 361 423 444 396 443 417 411 
459 378 307 381 326 275 232 182 416 429 228 89 249 314 322 344 370 
453 415 429 467 341 277 457 396 365 1025 
432 419 0 49 20 58 240 415 547 491 520 452 418 429 436 457 432 282 
309 359 342 382 394 361 404 385 133 151 210 157 151 266 335 437 455 
431 432 475 410 358 285 427 452 274 991 
295 592 58 43 65 34 60 267 425 422 445 512 546 549 515 501 380 231 
370 355 425 394 547 593 480 469 305 154 387 356 246 274 353 360 456 
468 377 445 389 401 300 384 441 284 1053 
74 486 266 46 93 82 163 129 198 202 322 312 284 265 222 283 361 337 
266 134 196 272 436 546 520 441 244 254 480 385 381 294 312 241 358 
505 423 420 481 371 305 366 385 324 1146 
29 459 435 72 88 118 158 89 95 145 150 69 43 6 0 0 159 505 722 463 
110 406 526 502 545 472 226 421 438 451 413 467 316 296 382 418 450 
453 488 365 312 371 357 354 1157 
334 626 608 290 93 32 104 141 109 148 107 120 215 79 43 42 35 183 519 
645 181 548 584 557 535 500 441 484 450 480 499 403 216 330 455 438 
467 472 502 387 261 405 353 389 1180 
413 496 457 383 237 82 142 161 123 125 193 169 223 67 32 53 46 0 51 
344 269 564 559 559 583 502 372 520 487 530 446 313 348 335 358 489 
453 388 426 348 250 591 250 621 1222 
367 379 355 410 363 318 319 115 34 165 232 283 258 58 15 30 38 32 80 
628 330 548 580 548 583 553 187 384 576 503 414 429 486 394 253 460 
523 416 376 329 447 656 70 924 1105 
439 366 375 420 355 376 569 331 139 308 300 323 338 290 134 8 19 0 
446 953 364 494 656 539 559 590 194 100 502 538 490 493 459 377 284 
366 431 464 412 328 658 253 133 1187 878 
536 408 329 370 340 300 338 382 440 492 451 424 367 279 349 527 120 
443 1045 1153 502 184 621 601 535 587 277 296 503 532 485 488 496 402 
277 420 400 353 284 513 350 0 652 1198 331 
439 394 451 473 504 540 489 412 349 343 348 284 270 262 185 519 594 
813 945 862 756 149 220 522 611 571 386 439 516 501 478 394 509 385 
333 353 269 378 349 239 19 272 1258 756 1 
115 123 337 491 460 486 502 522 523 488 464 457 462 444 223 0 109 484 
481 372 884 343 111 440 676 590 321 451 543 454 529 476 421 363 203 
306 637 424 293 237 292 1024 1243 218 2 
121 190 290 307 269 359 405 376 376 408 407 399 430 429 191 43 6 140 
481 466 416 587 108 338 667 622 337 261 456 368 473 455 297 209 458 
600 462 466 549 623 1160 1482 507 0 32 
485 610 614 289 301 222 222 376 502 527 493 362 305 204 5 0 29 106 
419 520 413 376 176 171 533 670 518 120 160 169 180 252 306 479 566 
484 594 552 608 1250 1536 738 7 24 35 
664 611 705 673 1022 559 764 818 704 721 761 777 776 699 463 178 0 47 
474 492 663 605 361 165 358 700 491 146 170 145 177 381 597 360 677 
930 560 445 920 1509 953 64 7 35 23 
651 643 644 344 686 641 663 513 534 573 584 625 678 740 745 611 222 5 
404 603 671 943 801 339 212 681 445 143 139 278 375 479 402 676 1173 
680 418 646 1337 1393 425 0 35 28 32 
